<svg width="497" height="100" viewBox="0 0 497 100" fill="none" xmlns="http://www.w3.org/2000/svg">
<path d="M16.4599 23.0217C17.9948 15.3673 19.5298 7.71297 21.0647 0.0585938H134.042C132.508 7.67258 130.973 15.2867 129.438 22.9007C105.303 40.8349 81.1889 58.7085 57.0544 76.6024H117.946C116.411 84.2568 114.492 91.9111 112.978 99.5655H0C1.53491 91.9515 3.45356 84.3374 4.96827 76.7234C29.1028 58.8296 53.2171 40.956 77.3516 23.0217H16.4599Z" fill="#F5F5F5"></path>
<path d="M389.521 0.0606479C370.759 23.6902 352.481 47.3604 333.982 70.8688C319.541 89.2272 299.123 99.5676 278.058 99.5676H237.464C242.816 74.4232 248.188 49.2183 253.54 24.0336C240.897 39.6655 228.699 55.3177 216.399 70.8486C201.898 89.1666 181.54 99.5473 160.496 99.5473H119.901C123.355 82.9864 127.172 66.3851 130.626 49.8242C134.079 33.2633 137.512 16.6215 140.966 0.0404319H175.441C170.069 25.5685 164.717 51.0764 159.365 76.5842C167.403 76.4631 175.441 72.3227 181.197 65.0924C195.375 47.239 209.149 29.3655 223.71 11.512C229.466 4.28175 237.12 0.101001 245.542 0.020216H293.024C287.672 25.5483 282.299 51.0562 276.947 76.564C285.369 76.4428 293.084 72.3431 298.779 65.0725C315.684 43.4423 332.871 21.6908 350.098 0H389.541L389.521 0.0606479Z" fill="#F5F5F5"></path>
<path d="M419.779 23.0217H385.304C386.839 15.3673 388.374 7.71297 389.909 0.0585938H474.935C489.113 0.0585938 498.565 11.6311 495.616 25.8694C494.344 32.0091 493.011 38.1891 491.779 44.2884C489.537 55.5579 479.52 65.1511 469.179 68.7056C474.168 79.0259 479.136 89.2856 484.125 99.5655H446.964C441.995 89.7703 437.391 79.9548 432.806 70.1597H409.823C407.52 79.9548 405.602 89.7703 403.32 99.5655H368.865C373.086 80.7022 376.903 61.7984 381.124 42.8947C393.767 36.2906 406.793 29.6663 419.8 23.0217H419.779ZM414.407 47.1965H447.731C452.72 47.1965 457.425 43.3188 458.455 38.5727C458.96 36.2905 459.485 33.9479 459.99 31.6253C461.02 26.8792 458.072 23.0419 453.103 23.0419H419.779C417.861 31.1204 416.326 39.1787 414.407 47.2168V47.1965Z" fill="#F5F5F5"></path>
</svg>